<?xml version="1.0" encoding="UTF-8" standalone="no"?>
<svg
   id="svg"
   version="1.1"
   width="300"
   height="300"
   viewBox="0 0 300 299.99999"
   sodipodi:docname="Logo of the Trần Đại Nghĩa High School for the Gifted.svg"
   inkscape:version="1.1 (c68e22c387, 2021-05-23)"
   xmlns:inkscape="http://www.inkscape.org/namespaces/inkscape"
   xmlns:sodipodi="http://sodipodi.sourceforge.net/DTD/sodipodi-0.dtd"
   xmlns="http://www.w3.org/2000/svg"
   xmlns:svg="http://www.w3.org/2000/svg">
  <defs
     id="defs11" />
  <sodipodi:namedview
     id="namedview9"
     pagecolor="#ffffff"
     bordercolor="#666666"
     borderopacity="1.0"
     inkscape:pageshadow="2"
     inkscape:pageopacity="0.0"
     inkscape:pagecheckerboard="0"
     showgrid="false"
     inkscape:zoom="2.045"
     inkscape:cx="139.1198"
     inkscape:cy="184.59658"
     inkscape:window-width="1920"
     inkscape:window-height="1002"
     inkscape:window-x="-8"
     inkscape:window-y="-8"
     inkscape:window-maximized="1"
     inkscape:current-layer="svg" />
  <g
     id="svgg"
     transform="translate(-50.962276,-52.005377)">
    <path
       id="path0"
       d="M 194.032,62.123 C 158.053,63.939 125.817,78.458 100.693,104.161 69.57,136.002 55.385,181.114 62.728,224.898 76.26,305.577 155.407,357.561 234.794,337.91 288.755,324.553 330.055,279.927 339.157,225.143 353.833,136.8 283.341,57.616 194.032,62.123 m 17.016,4.686 c 77.801,5.602 135.139,76.951 124.046,154.36 -8.856,61.8 -59.347,109.877 -121.507,115.697 C 125.338,345.129 52.7,267.036 67.314,179.606 78.832,110.694 141.165,61.778 211.048,66.809 m -16.635,8.743 c -0.14,0.049 -0.67,0.158 -1.178,0.243 -5.699,0.949 -5.455,12.152 0.29,13.326 3.545,0.725 6.387,-0.962 7.123,-4.226 l 0.187,-0.832 h -1.446 c -1.422,0 -1.451,0.015 -1.768,0.892 -1.46,4.037 -6.191,0.746 -5.505,-3.829 0.484,-3.229 4.541,-4.045 5.519,-1.11 0.238,0.715 3.055,-0.016 2.877,-0.746 -0.547,-2.252 -4.102,-4.419 -6.099,-3.718 m 15.036,0.945 c -0.288,1.24 -1.282,12.136 -1.122,12.296 0.094,0.093 0.734,0.224 1.423,0.29 l 1.254,0.12 0.159,-1.49 c 0.318,-2.965 0.381,-3.18 0.884,-3.02 3.802,1.207 6.996,-0.666 6.999,-4.103 0.003,-2.723 -1.184,-3.714 -4.952,-4.137 -1.327,-0.148 -2.884,-0.33 -3.461,-0.404 -0.937,-0.12 -1.063,-0.073 -1.184,0.448 m 36.637,0.465 c -0.284,0.284 -0.458,0.613 -0.385,0.731 0.203,0.329 1.138,0.51 1.298,0.251 0.228,-0.368 0.876,-0.265 1.042,0.166 0.098,0.255 -0.176,0.697 -0.77,1.241 -0.507,0.464 -0.922,1.021 -0.922,1.238 0,0.557 1.034,0.838 1.378,0.374 0.15,-0.204 0.613,-0.532 1.029,-0.731 1.498,-0.714 1.517,-2.672 0.034,-3.376 -1.167,-0.554 -2.08,-0.518 -2.704,0.106 m -68.181,0.722 c -5.831,2.674 -3.953,12.849 2.403,13.021 0.773,0.021 1.083,0.086 0.689,0.145 -0.691,0.104 -0.711,0.148 -0.543,1.169 0.221,1.338 0.139,1.28 1.509,1.074 l 1.161,-0.174 -0.158,-1.193 c -0.157,-1.186 -0.153,-1.195 0.745,-1.52 4.672,-1.689 4.388,-10.608 -0.401,-12.606 -1.316,-0.549 -4.122,-0.505 -5.405,0.084 m 44.446,1.729 c -0.24,1.091 -0.871,3.926 -1.402,6.3 -1.086,4.854 -1.097,4.583 0.191,4.811 0.525,0.094 1.13,0.22 1.343,0.282 0.308,0.09 0.512,-0.466 0.99,-2.698 0.556,-2.592 0.644,-2.801 1.136,-2.688 0.294,0.068 1.22,0.266 2.058,0.44 2.06,0.427 2.027,0.348 1.373,3.275 -0.645,2.893 -0.649,2.883 1.108,3.164 1.309,0.209 1.075,0.748 2.493,-5.744 0.68,-3.116 1.295,-5.91 1.367,-6.208 0.111,-0.464 -0.032,-0.583 -0.996,-0.825 -1.826,-0.46 -1.796,-0.486 -2.295,1.938 -0.252,1.223 -0.489,2.261 -0.527,2.308 -0.112,0.137 -4.026,-0.761 -4.262,-0.978 -0.118,-0.108 -0.032,-1.078 0.191,-2.156 0.54,-2.614 0.548,-2.578 -0.589,-2.76 -0.546,-0.087 -1.162,-0.223 -1.368,-0.302 -0.29,-0.112 -0.472,0.302 -0.811,1.841 m -6.795,-0.015 c 1.693,1.067 0.334,3.025 -2.035,2.932 -1.908,-0.075 -1.766,0.1 -1.558,-1.931 l 0.173,-1.696 1.424,0.167 c 0.783,0.092 1.681,0.33 1.996,0.528 m 26.285,0.102 c -0.733,0.42 -1.333,0.858 -1.333,0.972 0,0.428 1.928,0.871 2.486,0.572 0.797,-0.426 0.992,-0.35 1.152,0.448 0.132,0.661 1.819,1.75 2.178,1.407 0.512,-0.49 -0.865,-3.403 -1.781,-3.77 -1.271,-0.508 -1.138,-0.526 -2.702,0.371 m -73.314,0.39 c -0.548,0.202 -1.034,0.405 -1.079,0.45 -0.045,0.045 0.204,1.038 0.554,2.206 0.35,1.168 0.549,2.206 0.444,2.305 -0.202,0.19 -3.628,1.244 -4.045,1.244 -0.134,0 -0.51,-0.943 -0.837,-2.095 -0.327,-1.152 -0.631,-2.166 -0.677,-2.253 -0.196,-0.373 -2.894,0.624 -2.777,1.026 0.065,0.221 0.881,3.03 1.813,6.243 0.932,3.213 1.714,5.864 1.737,5.893 0.022,0.028 0.637,-0.123 1.365,-0.337 1.553,-0.455 1.548,-0.432 0.669,-3.314 -0.819,-2.685 -0.828,-2.667 1.576,-3.329 2.34,-0.645 2.129,-0.801 2.967,2.2 0.8,2.864 0.614,2.658 2.071,2.291 1.638,-0.412 1.647,-0.21 -0.311,-6.864 -1.882,-6.397 -1.81,-6.279 -3.47,-5.666 m 13.975,0.492 c 0.78,0.5 1.451,2.082 1.574,3.711 0.37,4.917 -5.161,5.658 -6.416,0.859 -1.002,-3.829 1.829,-6.502 4.842,-4.57 m 55.337,2.107 c -3.974,1.87 -5.31,8.787 -2.222,11.499 5.049,4.433 12.398,-0.455 10.977,-7.3 -0.71,-3.421 -5.513,-5.725 -8.755,-4.199 m 4.646,2.733 c 2.759,1.933 0.822,7.73 -2.583,7.73 -2.729,0 -3.826,-2.127 -2.678,-5.194 0.996,-2.664 3.414,-3.829 5.261,-2.536 m -95.853,2.42 c -4.809,1.394 -6.036,7.328 -2.376,11.496 2.634,3.001 7.71,2.689 9.323,-0.572 0.497,-1.004 0.523,-1.018 0.951,-0.545 0.42,0.465 2.172,0.076 2.167,-0.481 -0.002,-0.288 -3.024,-6.365 -3.165,-6.365 -0.139,0 -4.747,2.266 -4.915,2.417 -0.111,0.1 0.948,2.154 1.111,2.154 0.072,0 0.698,-0.288 1.392,-0.639 l 1.261,-0.639 -0.001,0.829 c -0.003,2.376 -2.751,3.963 -4.751,2.744 -4.234,-2.582 -2.517,-9.886 1.799,-7.652 l 0.983,0.509 1.241,-0.629 c 2.749,-1.393 -1.538,-3.636 -5.02,-2.627 m 108.335,1.535 c -0.605,1.185 -0.665,1.093 1.414,2.165 0.698,0.361 1.297,0.679 1.331,0.708 0.034,0.028 -1.023,2.073 -2.349,4.542 -1.326,2.47 -2.411,4.585 -2.411,4.7 0,0.233 2.49,1.459 2.623,1.291 0.046,-0.059 1.159,-2.13 2.474,-4.602 l 2.39,-4.496 1.592,0.89 c 1.787,0.999 1.783,1 2.457,-0.266 0.605,-1.135 0.902,-0.882 -4.311,-3.668 -5.064,-2.706 -4.54,-2.578 -5.21,-1.264 M 135.938,93.66 c -1.337,0.856 -1.424,0.451 0.855,4.013 1.065,1.664 1.998,3.184 2.073,3.379 0.075,0.194 -1.742,-0.629 -4.038,-1.83 l -4.174,-2.183 -1.213,0.788 c -1.477,0.961 -1.69,0.366 2.414,6.742 3.192,4.958 3.343,5.147 3.86,4.811 0.297,-0.193 0.796,-0.509 1.11,-0.704 0.777,-0.481 0.847,-0.305 -1.671,-4.241 l -2.242,-3.506 4.274,2.234 c 4.877,2.549 4.479,2.442 5.804,1.565 1.306,-0.864 1.485,-0.365 -2.198,-6.124 -3.999,-6.254 -3.538,-5.785 -4.854,-4.944 m 127.73,6.212 -3.634,5.373 0.569,0.43 c 0.314,0.236 0.875,0.61 1.248,0.83 l 0.678,0.4 1.576,-2.278 c 0.866,-1.253 1.621,-2.278 1.676,-2.278 0.076,0 3.121,2.046 3.658,2.459 0.059,0.045 -0.599,1.1 -1.46,2.345 -0.861,1.245 -1.566,2.326 -1.566,2.401 0,0.31 2.347,1.722 2.529,1.522 0.366,-0.403 7.121,-10.453 7.121,-10.594 0,-0.33 -2.354,-1.734 -2.504,-1.495 -0.848,1.351 -2.483,3.605 -2.618,3.61 -0.094,0.003 -0.972,-0.546 -1.952,-1.222 l -1.783,-1.227 1.254,-1.884 c 0.689,-1.036 1.253,-1.963 1.254,-2.061 0,-0.163 -2.143,-1.741 -2.331,-1.716 -0.045,0.006 -1.717,2.429 -3.715,5.385 m -139.541,1.816 c -1.22,1.079 -1.398,0.647 1.968,4.79 3.27,4.026 3.456,4.518 2.179,5.796 -1.579,1.578 -2.377,1.124 -5.988,-3.408 -2.881,-3.615 -2.65,-3.473 -3.964,-2.432 -1.298,1.028 -1.377,0.812 1.659,4.526 4.56,5.58 5.9,6.138 9.282,3.867 3.807,-2.557 3.639,-4.856 -0.755,-10.337 -3.267,-4.073 -3.078,-3.953 -4.381,-2.802 m 63.683,5.996 -12.953,5.811 -3.238,0.014 -3.238,0.015 v 5.46 5.46 h -1.27 -1.27 v 10.032 10.032 h 3.683 3.682 v -10.032 -10.032 h -1.396 -1.397 V 120 115.556 l 2.603,0.002 2.603,0.002 12.562,6.728 c 6.909,3.7 12.68,6.726 12.825,6.723 0.436,-0.008 27.348,-12.081 27.395,-12.289 0.039,-0.175 -27.216,-14.902 -27.512,-14.865 -0.07,0.009 -5.956,2.631 -13.079,5.827 m 96.533,-4.292 c -1.878,0.274 -1.922,0.324 -1.059,1.225 0.591,0.616 0.851,0.716 1.569,0.599 0.857,-0.139 0.861,-0.135 0.861,0.865 0,1.032 0.951,2.337 1.469,2.016 1.082,-0.668 -0.02,-5.215 -1.201,-4.955 -0.077,0.017 -0.815,0.129 -1.639,0.25 m -7.518,2.194 c -4.243,2.752 -5.348,7.366 -2.532,10.574 5.295,6.03 15.442,-2.398 10.577,-8.784 -1.794,-2.356 -5.798,-3.247 -8.045,-1.79 m 5.08,2.578 c 1.826,1.266 1.806,3.375 -0.053,5.486 -1.921,2.183 -3.733,2.497 -5.31,0.92 -2.904,-2.904 1.987,-8.745 5.363,-6.406 m -169.016,3.693 c -0.419,0.189 -1.936,1.532 -3.37,2.983 l -2.608,2.639 4.638,4.618 4.638,4.618 1.083,-1.063 1.084,-1.064 -1.783,-1.794 -1.782,-1.795 1.082,-1.021 c 1.85,-1.748 1.847,-1.747 2.793,-1.162 0.46,0.285 1.12,0.821 1.467,1.191 1.205,1.289 1.463,1.297 2.692,0.092 1.2,-1.179 1.348,-1.496 0.698,-1.496 -0.229,0 -1.152,-0.628 -2.052,-1.397 -1.235,-1.054 -1.834,-1.397 -2.442,-1.397 -0.763,-10e-4 -0.805,-0.052 -0.816,-0.981 -0.028,-2.497 -2.867,-4.082 -5.322,-2.971 m 172.952,5.583 c -5.102,4.635 -4.872,4.292 -3.742,5.579 l 0.83,0.944 3.1,-2.793 c 1.705,-1.536 3.13,-2.762 3.167,-2.725 0.037,0.037 -0.554,1.923 -1.313,4.191 -1.735,5.185 -1.699,4.815 -0.599,6.1 l 0.931,1.088 4.841,-4.389 4.84,-4.388 -0.589,-0.764 c -1.115,-1.446 -1.214,-1.431 -3.359,0.493 -1.082,0.97 -2.449,2.19 -3.038,2.711 l -1.072,0.948 1.472,-4.59 1.473,-4.589 -0.897,-0.993 c -1.208,-1.337 -0.893,-1.502 -6.045,3.177 m -170.476,-2.441 c 0.75,0.644 0.501,1.377 -0.994,2.922 l -1.428,1.476 -0.98,-0.957 c -0.538,-0.525 -0.979,-1.081 -0.979,-1.234 0,-0.389 1.751,-2.022 2.666,-2.487 0.785,-0.398 0.959,-0.37 1.715,0.28 m 61.143,12.493 v 9.905 l 9.206,0.018 9.207,0.018 -2.218,0.467 c -4.025,0.849 -10.062,3.179 -10.292,3.973 -0.085,0.292 4.263,2.312 6.27,2.914 1.072,0.321 1.128,0.31 1.518,-0.286 5.986,-9.173 15.384,-9.587 20.849,-0.919 0.489,0.775 1.079,1.415 1.313,1.422 1.017,0.029 7.062,-2.41 7.424,-2.996 0.375,-0.607 -6.495,-3.256 -10.642,-4.102 l -2.286,-0.466 9.206,-0.022 9.207,-0.021 v -8.762 c 0,-4.819 -0.086,-8.763 -0.191,-8.764 -0.104,-10e-4 -5.576,2.402 -12.159,5.339 l -11.969,5.339 -12.089,-6.481 c -6.649,-3.564 -12.149,-6.481 -12.222,-6.481 -0.072,0 -0.132,4.457 -0.132,9.905 m -74.434,-4 c -1.569,1.991 -3.034,3.83 -3.254,4.087 -0.373,0.435 -0.343,0.52 0.425,1.206 1.049,0.937 1.32,0.925 2.03,-0.088 0.317,-0.453 0.801,-1.092 1.077,-1.421 l 0.5,-0.596 3.622,2.866 c 1.992,1.577 3.833,3.045 4.092,3.263 0.438,0.369 0.53,0.326 1.329,-0.619 1.174,-1.387 1.332,-1.152 -3.157,-4.689 l -4.017,-3.166 1.162,-1.498 1.163,-1.497 -0.878,-0.733 c -1.176,-0.982 -0.883,-1.188 -4.094,2.885 m 194.145,3.089 c -5.546,2.582 -6.246,10.194 -1.066,11.589 0.981,0.264 1.005,0.295 0.591,0.753 -0.433,0.479 0.237,2.029 0.876,2.029 0.354,0 5.602,-3.81 5.602,-4.067 0,-0.134 -0.695,-1.223 -1.546,-2.419 l -1.545,-2.175 -0.931,0.692 c -0.511,0.38 -0.972,0.724 -1.024,0.763 -0.052,0.04 0.262,0.557 0.698,1.149 1.025,1.394 1.005,1.486 -0.316,1.486 -4.388,0 -4.081,-5.352 0.416,-7.23 2.833,-1.184 5.963,1.585 4.367,3.863 -0.41,0.585 0.75,2.732 1.477,2.732 1.116,0 1.931,-3.033 1.351,-5.029 -1.134,-3.9 -5.312,-5.83 -8.95,-4.136 m -201.87,10.282 c -4.605,1.158 -6.141,7.515 -2.625,10.865 4.578,4.363 12.177,1.82 11.282,-3.775 -0.15,-0.937 -0.138,-0.954 0.554,-0.816 0.617,0.124 0.762,0.028 1.133,-0.751 l 0.426,-0.893 -2.784,-1.564 c -3.791,-2.132 -3.457,-2.162 -4.88,0.442 -1.328,2.429 -1.341,2.65 -0.191,3.245 0.941,0.487 1.133,0.39 1.792,-0.903 0.616,-1.207 0.633,-1.209 1.264,-0.173 2.282,3.743 -3.054,6.093 -6.566,2.892 -2.333,-2.126 -1.277,-5.749 1.675,-5.749 0.762,0 2.133,-2.105 1.665,-2.557 -0.33,-0.318 -1.919,-0.471 -2.745,-0.263 m 103.423,2.926 c -2.199,0.905 -6.026,4.553 -6.026,5.745 0,0.357 5.164,1.245 7.302,1.255 l 1.079,0.005 v -3.81 c 0,-4.372 0.118,-4.212 -2.355,-3.195 m 4.133,3.17 v 3.825 l 1.206,-0.132 c 3.573,-0.391 6.921,-0.959 6.921,-1.173 0,-1.649 -4.709,-5.629 -7.302,-6.172 l -0.825,-0.173 v 3.825 m -23.317,1.316 c -3.978,3.219 -6.208,7.154 -6.788,11.979 l -0.176,1.46 h 7.618 7.619 l 0.169,-1.968 c 0.223,-2.594 0.842,-5.705 1.47,-7.389 0.585,-1.567 0.597,-1.55 -1.579,-2.318 -0.908,-0.32 -2.763,-1.138 -4.123,-1.818 -2.951,-1.477 -2.308,-1.485 -4.21,0.054 m 42.407,-0.886 c -1.031,0.722 -3.983,2.076 -6.048,2.772 l -2.069,0.699 0.617,1.808 c 0.759,2.227 1.362,5.57 1.362,7.556 v 1.49 h 7.619 7.619 v -1.216 c 0,-3.854 -2.399,-8.355 -6.299,-11.819 -1.803,-1.601 -2.137,-1.755 -2.801,-1.29 m 86.543,0.196 c -5.559,1.499 -7.585,7.048 -3.915,10.718 1.407,1.408 5.71,2.236 5.71,1.1 0,-0.852 -1.171,-2.53 -1.677,-2.403 -3.442,0.864 -4.074,-3.762 -0.793,-5.791 3.477,-2.15 7.462,0.191 5.428,3.189 l -0.598,0.881 0.603,1.186 c 0.669,1.317 0.745,1.356 1.556,0.788 1.642,-1.15 2.081,-4.332 0.919,-6.664 -1.392,-2.792 -4,-3.875 -7.233,-3.004 m -117.128,4.922 c -0.789,2.265 -1.217,4.378 -1.376,6.794 l -0.158,2.413 h 5.625 5.626 v -4.534 -4.534 l -2.349,-0.147 c -1.999,-0.125 -5.139,-0.642 -6.553,-1.078 -0.284,-0.088 -0.511,0.214 -0.815,1.086 m 18.479,-0.82 c -0.838,0.187 -2.752,0.477 -4.254,0.645 l -2.73,0.305 v 4.539 4.538 h 5.605 5.604 l -0.172,-2.095 c -0.31,-3.771 -1.466,-8.151 -2.172,-8.231 -0.197,-0.022 -1.043,0.113 -1.881,0.299 m -123.14,2.48 c -0.229,0.599 -0.416,1.158 -0.416,1.244 0,0.086 1.728,0.882 3.841,1.769 l 3.84,1.614 -2.38,0.295 c -1.309,0.163 -3.486,0.432 -4.837,0.598 l -2.458,0.302 -0.56,1.38 c -0.308,0.759 -0.516,1.419 -0.463,1.466 0.053,0.048 2.325,1.007 5.049,2.132 2.724,1.125 5.385,2.228 5.914,2.451 l 0.962,0.406 0.493,-1.087 c 0.271,-0.597 0.495,-1.2 0.497,-1.34 0.003,-0.14 -1.795,-0.996 -3.994,-1.903 l -3.999,-1.65 5.001,-0.611 5.002,-0.612 0.542,-1.262 c 0.674,-1.567 1.148,-1.225 -5.483,-3.964 -6.54,-2.702 -6.025,-2.606 -6.551,-1.228 m 226.144,7.055 c -6.685,2.369 -6.013,1.937 -5.486,3.523 0.508,1.528 0.247,1.496 3.345,0.417 1.373,-0.479 2.521,-0.847 2.55,-0.818 0.029,0.029 0.387,0.997 0.795,2.151 l 0.742,2.097 -0.792,0.33 c -0.436,0.181 -1.593,0.592 -2.571,0.913 -0.978,0.321 -1.815,0.615 -1.861,0.653 -0.302,0.254 0.859,2.909 1.212,2.769 0.217,-0.086 2.946,-1.05 6.063,-2.142 6.636,-2.324 5.983,-1.92 5.482,-3.389 -0.534,-1.568 -0.503,-1.561 -2.91,-0.673 -1.149,0.423 -2.121,0.738 -2.16,0.699 -0.039,-0.039 -0.417,-1.019 -0.84,-2.177 l -0.768,-2.106 0.558,-0.209 c 0.306,-0.115 1.3,-0.472 2.208,-0.794 0.908,-0.322 1.676,-0.601 1.707,-0.619 0.258,-0.152 -0.863,-2.67 -1.184,-2.658 -0.218,0.008 -2.958,0.923 -6.09,2.033 m -139.812,2.968 c 0.859,3.877 4.008,8.455 7.464,10.85 l 1.034,0.717 2.599,-1.27 c 1.43,-0.698 3.373,-1.543 4.317,-1.877 1.31,-0.464 1.679,-0.699 1.556,-0.99 -0.604,-1.421 -1.449,-4.498 -1.692,-6.16 l -0.288,-1.968 h -7.572 -7.572 l 0.154,0.698 m 16.98,-0.127 c 0.065,0.315 0.192,1.143 0.283,1.842 0.198,1.517 1.305,5.126 1.636,5.33 0.128,0.08 1.353,-0.079 2.722,-0.352 1.369,-0.274 3.374,-0.576 4.457,-0.673 l 1.968,-0.174 v -3.272 -3.272 h -5.592 -5.592 l 0.118,0.571 m 12.844,2.858 v 3.428 h 0.846 c 0.465,0 2.093,0.234 3.619,0.521 1.525,0.286 3.176,0.583 3.669,0.661 l 0.896,0.14 0.567,-1.613 c 0.638,-1.818 1.312,-4.815 1.319,-5.868 l 0.004,-0.698 h -5.46 -5.46 v 3.429 m 12.822,-2.477 c -0.403,2.509 -0.989,4.901 -1.536,6.274 -0.331,0.831 -0.577,1.53 -0.547,1.553 0.03,0.023 0.683,0.24 1.451,0.482 0.768,0.242 2.746,1.012 4.395,1.71 l 2.998,1.27 1.828,-1.5 c 3.194,-2.623 5.966,-6.794 6.419,-9.662 l 0.171,-1.079 h -7.513 -7.513 l -0.153,0.952 m -135.951,2.144 c -0.307,1.21 -0.234,1.362 0.78,1.612 0.543,0.134 0.698,0.082 0.698,-0.236 0,-0.503 0.347,-0.528 0.741,-0.052 0.234,0.281 0.155,0.508 -0.375,1.079 -3.096,3.335 -2.098,8.495 1.983,10.25 5.448,2.344 10.05,-0.414 9.802,-5.874 -0.174,-3.831 -2.804,-5.885 -7.581,-5.92 -1.396,-0.01 -2.538,-0.1 -2.538,-0.199 0,-0.363 -1.069,-1.163 -1.732,-1.297 -0.375,-0.076 -0.865,-0.209 -1.091,-0.296 -0.318,-0.123 -0.472,0.086 -0.687,0.933 m -1.768,3.367 c -1.583,0.384 -1.405,0.22 -1.923,1.771 -0.537,1.608 -0.534,1.609 1.554,0.558 1.69,-0.851 2.076,-1.291 2.088,-2.379 0.004,-0.371 0.022,-0.371 -1.719,0.05 m 10.177,0.796 c 4.601,1.568 3.053,7.106 -1.739,6.22 -2.211,-0.408 -3.78,-1.59 -3.928,-2.958 -0.33,-3.063 2.116,-4.471 5.667,-3.262 m 107.233,1.787 c -2.554,0.461 -2.646,0.564 -1.715,1.915 1.675,2.435 4.284,4.348 6.385,4.684 l 1.039,0.166 v -3.588 -3.588 l -1.841,0.023 c -1.013,0.012 -2.754,0.187 -3.868,0.388 m 7.487,3.11 c 0,4.16 -0.026,4.129 2.529,2.94 2.518,-1.172 5.934,-4.669 5.078,-5.198 -0.389,-0.241 -3.947,-0.916 -6.147,-1.167 l -1.46,-0.166 v 3.591 m 116.185,-1.896 c -6.58,1.516 -7.332,2.117 -7.184,5.747 0.217,5.31 2.19,6.259 9.57,4.601 5.11,-1.148 4.721,-0.911 4.359,-2.657 l -0.289,-1.391 -1.448,0.341 c -7.957,1.873 -8.649,1.92 -9.316,0.632 -1.225,-2.37 -0.351,-3.099 5.245,-4.373 2.414,-0.549 4.41,-1.02 4.437,-1.047 0.083,-0.085 -0.537,-2.668 -0.671,-2.791 -0.069,-0.065 -2.186,0.357 -4.703,0.938 m -130.936,0.892 c -5.378,2.176 -5.386,2.196 -1.533,3.795 4.046,1.679 9.27,2.851 12.556,2.817 l 1.315,-0.013 -1.457,-0.466 c -2.698,-0.863 -5.871,-3.5 -7.37,-6.125 -0.693,-1.213 -0.533,-1.213 -3.511,-0.008 m 24.013,0.197 c -1.231,2.286 -4.517,4.964 -7.354,5.994 l -1.273,0.462 2.285,-0.122 c 3.904,-0.21 8.504,-1.377 12.381,-3.143 2.702,-1.23 2.712,-1.213 -1.676,-2.845 -3.85,-1.432 -3.781,-1.427 -4.363,-0.346 M 75.325,175.27 c -0.273,0.847 -0.297,2 -0.043,2.003 0.15,0.002 0.531,0.073 0.845,0.157 0.42,0.112 0.571,0.044 0.571,-0.258 0,-0.225 0.186,-0.41 0.412,-0.41 0.303,0 0.342,0.085 0.147,0.32 -0.147,0.177 -0.304,0.886 -0.349,1.578 l -0.083,1.257 4.432,0.712 c 5.453,0.876 6.257,1.349 5.748,3.377 -0.48,1.912 -2.893,2.026 -10.342,0.485 -0.577,-0.119 -1.573,2.385 -1.138,2.86 0.165,0.181 8.489,1.347 9.613,1.347 2.613,0 4.22,-1.914 4.439,-5.286 0.238,-3.658 -1.075,-4.731 -6.89,-5.631 -2.951,-0.457 -3.715,-0.658 -3.827,-1.009 -0.377,-1.19 -3.244,-2.408 -3.535,-1.502 m 63.42,7.319 c 1.162,9.817 21.391,30.576 32.343,33.193 0.956,0.228 1.933,0.485 2.171,0.571 0.327,0.117 -0.237,0.657 -2.283,2.187 -16.5,12.335 -24.282,31.2 -25.117,60.889 l -0.162,5.777 h 9.906 9.906 l 0.163,-3.417 c 1.405,-29.285 11.548,-52.486 23.674,-54.148 l 1.13,-0.154 v 28.859 28.86 h 10.413 10.413 V 256.348 227.49 l 1.291,0.171 c 12.169,1.615 22.006,24.231 23.732,54.561 l 0.17,2.984 h 9.879 9.88 l -0.001,-1.333 c -0.034,-31.325 -8.084,-52.241 -25.073,-65.138 -2.801,-2.127 -3.168,-2.608 -1.985,-2.608 9.357,0 32.443,-22.773 34.049,-33.587 l 0.179,-1.207 h -62.414 -62.413 l 0.149,1.256 m 183.795,0.934 c -4.562,3.311 -4.393,3.225 -6.952,3.515 l -2.318,0.264 0.09,1.396 c 0.112,1.746 -0.155,1.616 2.619,1.274 l 2.37,-0.292 3.937,1.566 c 2.165,0.862 4.079,1.625 4.254,1.696 0.354,0.143 0.413,-0.712 0.156,-2.265 -0.155,-0.938 -0.167,-0.946 -2.601,-1.746 -1.344,-0.442 -2.528,-0.879 -2.63,-0.971 -0.103,-0.092 0.896,-0.837 2.219,-1.655 l 2.406,-1.489 -0.141,-1.043 c -0.361,-2.687 -0.079,-2.666 -3.409,-0.25 M 77.005,191.49 c -1.626,0.738 -1.986,1.783 -2.196,6.381 l -0.17,3.712 2.49,0.157 c 8.131,0.509 10.49,0.511 10.493,0.008 0.001,-0.263 0.071,-0.893 0.155,-1.401 l 0.153,-0.923 -2.603,-0.186 -2.602,-0.187 0.15,-1.791 c 0.186,-2.218 0.505,-2.584 2.277,-2.619 0.728,-0.015 1.696,-0.043 2.15,-0.064 l 0.825,-0.037 v -1.651 c 0,-1.298 -0.081,-1.651 -0.381,-1.651 -0.209,0 -0.381,0.114 -0.381,0.254 0,0.149 -0.879,0.254 -2.131,0.254 -1.727,0 -2.244,0.093 -2.73,0.49 -0.595,0.486 -0.604,0.485 -1.234,-0.085 -0.551,-0.498 -2.278,-1.178 -2.95,-1.161 -0.124,0.003 -0.715,0.228 -1.315,0.5 m 3.038,2.962 c 0.379,0.343 0.465,0.808 0.465,2.516 v 2.095 l -1.587,-0.137 c -1.951,-0.169 -1.766,0.102 -1.532,-2.25 0.244,-2.453 1.364,-3.392 2.654,-2.224 m 111.703,7.326 v 5.968 h -1.115 c -5.981,0 -16.196,-5.062 -21.731,-10.769 l -1.133,-1.167 h 11.99 11.989 v 5.968 m 42.159,-5.729 c 0,0.437 -4.652,4.358 -7.107,5.99 -4.263,2.833 -10.684,5.317 -14.544,5.625 l -1.968,0.157 v -6.006 -6.005 h 11.809 c 7.23,0 11.81,0.092 11.81,0.239 m 80.931,-0.053 c -0.743,0.077 -0.938,0.192 -0.825,0.486 0.081,0.212 0.148,2.433 0.148,4.936 v 4.55 h 1.27 1.269 v -3.555 -3.556 h 1.524 1.524 v 3.048 3.047 h 1.27 1.27 v -3.174 -3.175 h 1.143 1.142 l 0.004,2.857 c 0.005,3.888 0.044,4 1.423,4 h 1.113 v -4.825 -4.825 l -5.651,0.042 c -3.108,0.024 -6.088,0.088 -6.624,0.144 m 13.545,2.982 c 0,0.941 0.113,1.211 0.652,1.564 l 0.652,0.428 -0.632,0.531 c -0.618,0.518 -1.231,2.689 -0.76,2.689 0.116,0 0.812,-0.413 1.546,-0.919 1.871,-1.289 1.964,-2.888 0.256,-4.432 -1.429,-1.293 -1.714,-1.27 -1.714,0.139 m -253.554,5.666 c -0.132,0.214 0.307,8.938 0.497,9.896 0.098,0.49 0.275,0.571 1.252,0.571 h 1.138 v -1.888 c 0,-2.253 -0.326,-2.08 4.318,-2.29 1.885,-0.086 4.042,-0.224 4.793,-0.308 l 1.365,-0.152 -0.151,-1.271 c -0.198,-1.677 0.244,-1.576 -5.409,-1.238 -2.746,0.164 -5.029,0.261 -5.075,0.216 -0.045,-0.046 -0.158,-0.905 -0.252,-1.909 l -0.17,-1.827 h -1.091 c -0.6,0 -1.147,0.09 -1.215,0.2 m 239.078,5.261 c 0,0.628 -0.029,1.227 -0.064,1.33 -0.035,0.104 1.675,0.38 3.799,0.615 2.125,0.234 4.031,0.464 4.236,0.51 0.205,0.047 -1.59,0.932 -3.99,1.969 -5.185,2.239 -4.683,1.865 -4.786,3.571 l -0.084,1.392 6.349,0.674 c 3.492,0.371 6.394,0.632 6.45,0.582 0.055,-0.051 0.153,-0.651 0.219,-1.334 0.14,-1.458 0.444,-1.339 -4.701,-1.852 -1.711,-0.171 -3.111,-0.378 -3.111,-0.461 0,-0.083 1.857,-0.938 4.127,-1.9 2.27,-0.963 4.179,-1.793 4.242,-1.845 0.104,-0.085 0.493,-2.933 0.416,-3.045 -0.052,-0.074 -11.892,-1.349 -12.531,-1.349 -0.508,0 -0.571,0.127 -0.571,1.143 M 91.751,247.643 c -5.865,2.903 -3.822,11.8 2.705,11.78 3.837,-0.012 6.199,-2.325 6.22,-6.09 0.026,-4.655 -4.799,-7.732 -8.925,-5.69 m 214.027,-0.128 c -5.816,2.515 -4.437,11.317 1.873,11.963 7.083,0.726 9.613,-9.272 3.042,-12.018 -1.099,-0.459 -3.796,-0.429 -4.915,0.055 M 120.791,277.08 c -1.181,1.308 -1.2,1.232 0.733,2.929 l 1.65,1.449 -2.857,3.033 c -1.571,1.667 -3.53,3.775 -4.354,4.684 l -1.497,1.651 1.106,1.127 c 1.475,1.503 1.119,1.706 5.81,-3.318 4.767,-5.105 4.275,-4.864 6.146,-3.013 1.616,1.6 1.837,1.615 2.917,0.2 l 0.72,-0.945 -3.297,-3.143 c -1.813,-1.729 -3.941,-3.712 -4.728,-4.407 l -1.431,-1.263 -0.918,1.016 m 153.536,4.402 -1.337,1.354 3.227,7.598 c 1.774,4.179 3.269,7.648 3.32,7.709 0.14,0.167 2.622,-2.336 2.619,-2.641 -0.001,-0.145 -0.279,-0.859 -0.618,-1.586 l -0.615,-1.321 2.038,-1.838 2.038,-1.837 1.422,0.788 1.422,0.788 1.349,-1.152 c 0.741,-0.633 1.348,-1.241 1.348,-1.35 0,-0.198 -14.309,-7.867 -14.679,-7.867 -0.108,0 -0.798,0.61 -1.534,1.355 m -7.574,0.797 c -0.29,0.203 -0.593,0.699 -0.673,1.101 -0.125,0.622 -0.377,0.816 -1.678,1.29 -2.129,0.777 -2.947,2.421 -2.044,4.109 0.355,0.662 1.515,-0.03 1.515,-0.904 0,-0.704 0.292,-0.945 1.854,-1.529 1.674,-0.627 2.294,-1.461 2.136,-2.876 -0.154,-1.378 -0.426,-1.67 -1.11,-1.191 m 13.224,3.814 2.237,1.267 -1.195,1.082 c -1.453,1.316 -1.481,1.317 -1.966,0.129 -0.215,-0.523 -0.692,-1.62 -1.062,-2.436 -0.37,-0.816 -0.577,-1.445 -0.461,-1.397 0.116,0.048 1.217,0.658 2.447,1.355 m -152.213,6.227 c -5.358,7.423 -4.879,6.345 -3.319,7.466 1.648,1.184 1.457,1.263 3.315,-1.373 1.87,-2.654 1.688,-2.59 3.519,-1.235 2.364,1.749 2.537,2.27 1.314,3.959 -0.781,1.077 -1.892,3.123 -1.754,3.228 2.671,2.045 3.801,2.536 3.394,1.478 -0.087,-0.227 0.275,-1.046 0.859,-1.943 1.458,-2.239 1.826,-3.232 1.552,-4.187 -0.226,-0.787 -0.222,-0.792 0.733,-0.792 2.785,0 4.634,-3.512 3.299,-6.268 -0.457,-0.946 -5.33,-4.901 -8.023,-6.513 -0.193,-0.115 -1.928,2.078 -4.889,6.18 m 138.776,-4.306 c -0.699,0.552 -1.24,1.121 -1.204,1.264 0.046,0.184 7.241,9.724 9.344,12.391 0.293,0.37 2.854,-2.157 2.581,-2.546 -1.07,-1.526 -9.221,-12.115 -9.324,-12.114 -0.07,10e-4 -0.699,0.453 -1.397,1.005 m -131.136,3.824 c 2.498,1.852 2.74,2.46 1.521,3.823 -0.875,0.98 -1.427,0.844 -4.041,-0.989 l -1.592,-1.117 1.057,-1.508 c 1.268,-1.806 0.931,-1.783 3.055,-0.209 m 17.23,-0.6 c -0.009,1.215 1.703,4.232 2.639,4.651 1.303,0.583 1.273,0.637 0.908,-1.627 l -0.308,-1.906 -1.509,-0.654 c -1.662,-0.721 -1.728,-0.739 -1.73,-0.464 m 108.735,0.576 c -0.608,0.4 -1.165,0.786 -1.236,0.857 -0.072,0.072 0.512,1.148 1.297,2.392 0.785,1.244 1.427,2.373 1.427,2.51 0,0.233 -4.575,3.225 -4.695,3.07 -0.03,-0.039 -0.665,-1.078 -1.411,-2.309 -0.746,-1.23 -1.454,-2.298 -1.574,-2.372 -0.365,-0.225 -3.011,1.512 -2.869,1.883 0.319,0.832 7.883,12.823 8.154,12.927 0.459,0.176 2.955,-1.445 2.809,-1.825 -0.106,-0.278 -2.019,-3.399 -3.128,-5.106 -0.335,-0.515 -0.243,-0.608 1.946,-1.969 2.85,-1.77 2.376,-1.917 4.405,1.366 0.949,1.537 1.8,2.794 1.889,2.794 0.414,0 2.862,-1.671 2.799,-1.91 -0.23,-0.876 -8.002,-13.055 -8.325,-13.046 -0.209,0.006 -0.879,0.338 -1.488,0.738 m -113.111,1.976 c -2.035,1.119 -2.019,1.07 -0.55,1.674 1.096,0.451 1.219,0.455 2.039,0.063 1.127,-0.537 1.049,-0.569 1.351,0.551 0.199,0.738 0.474,1.069 1.161,1.397 1.584,0.755 1.646,0.663 1.082,-1.582 l -0.505,-2.012 -1.227,-0.528 c -1.524,-0.655 -1.312,-0.683 -3.351,0.437 m -5.87,8.596 c -3.304,3.024 -6.005,5.567 -6.003,5.651 0.003,0.084 0.706,0.532 1.564,0.994 l 1.559,0.84 1.209,-1.191 1.21,-1.191 2.37,1.269 c 2.582,1.384 2.544,1.322 2.143,3.535 l -0.191,1.054 1.606,0.906 c 1.598,0.901 1.606,0.903 1.782,0.342 0.214,-0.681 2.53,-15.977 2.432,-16.062 -0.223,-0.194 -3.267,-1.644 -3.452,-1.644 -0.123,0 -2.926,2.474 -6.229,5.497 m 101.498,-1.469 c -6.898,2.384 -7.029,12.498 -0.203,15.69 2.908,1.361 8.719,-0.389 8.765,-2.639 0.016,-0.741 0.529,-0.925 0.975,-0.35 0.443,0.571 0.516,0.584 1.427,0.255 1.33,-0.481 1.329,-0.522 -0.13,-3.923 -0.715,-1.666 -1.454,-3.395 -1.642,-3.841 l -0.342,-0.812 -3.003,1.288 c -1.652,0.708 -3.048,1.328 -3.103,1.377 -0.144,0.13 0.734,2.356 0.992,2.516 0.119,0.074 0.867,-0.154 1.662,-0.505 0.795,-0.352 1.489,-0.64 1.541,-0.64 0.361,0 0.003,2.095 -0.481,2.82 -2.203,3.297 -6.471,1.882 -7.831,-2.598 -1.263,-4.157 2.047,-7.573 5.24,-5.407 l 0.967,0.656 1.398,-0.597 c 1.766,-0.753 1.838,-1.009 0.63,-2.217 -1.57,-1.571 -4.222,-1.985 -6.862,-1.073 m -95.972,3.115 c -0.515,2.884 -0.555,2.935 -1.789,2.284 -1.911,-1.009 -1.919,-0.854 0.147,-2.935 2.259,-2.276 2.171,-2.311 1.642,0.651 m 9.38,1.666 c -0.719,2.069 -1.887,5.398 -2.595,7.398 l -1.286,3.635 0.894,0.374 c 0.492,0.205 1.214,0.437 1.605,0.515 l 0.71,0.142 1.749,-4.962 1.75,-4.963 0.67,3.606 c 0.369,1.982 0.866,4.7 1.105,6.038 l 0.434,2.434 1.547,0.556 c 1.922,0.692 1.478,1.385 4.348,-6.792 2.881,-8.208 2.791,-7.48 1.011,-8.146 -1.728,-0.647 -1.268,-1.254 -3.246,4.287 -0.918,2.57 -1.703,4.708 -1.745,4.75 -0.042,0.041 -0.528,-2.507 -1.081,-5.664 l -1.005,-5.74 -1.143,-0.491 c -2.449,-1.051 -2.248,-1.215 -3.722,3.023 m 75.15,-0.112 c -1.333,0.326 -1.336,0.052 0.063,5.508 0.625,2.435 1.095,4.468 1.045,4.518 -0.05,0.05 -1.883,-1.768 -4.073,-4.038 l -3.983,-4.129 -1.685,0.442 c -0.926,0.243 -1.728,0.485 -1.782,0.539 -0.094,0.094 3.719,14.916 3.882,15.089 0.128,0.136 2.925,-0.533 3.046,-0.729 0.09,-0.145 -1.624,-7.211 -2.277,-9.389 -0.124,-0.412 1.321,0.867 4.115,3.642 l 4.305,4.278 1.561,-0.438 c 1.921,-0.539 1.951,0.262 -0.313,-8.371 -2.059,-7.854 -1.821,-7.432 -3.904,-6.922 m -53.262,3.557 c -0.207,1.197 -0.631,4.327 -0.637,4.698 -0.003,0.175 -0.232,0.318 -0.508,0.318 -0.503,0 -0.568,0.147 -0.871,1.968 -0.101,0.607 -0.042,0.825 0.222,0.825 0.624,0 0.648,0.378 0.222,3.373 -0.542,3.813 -0.744,3.55 3.132,4.079 7.042,0.961 9.743,-0.62 10.781,-6.309 1.079,-5.908 -0.925,-8.234 -7.981,-9.265 -4.429,-0.647 -4.191,-0.664 -4.36,0.313 m 31.548,0.626 c -0.384,0.058 -0.698,0.135 -0.698,0.17 0,0.035 0.343,3.401 0.762,7.479 0.419,4.079 0.762,7.581 0.762,7.783 0,0.316 3.113,0.317 3.504,0 0.041,-0.033 -0.273,-3.426 -0.699,-7.539 -0.425,-4.113 -0.774,-7.612 -0.774,-7.776 0,-0.294 -1.329,-0.348 -2.857,-0.117 m -11.492,0.547 c -0.749,0.158 -0.804,0.285 -3.354,7.779 -1.425,4.191 -2.596,7.71 -2.603,7.821 -0.006,0.111 0.811,0.168 1.817,0.127 l 1.827,-0.075 0.51,-1.595 0.509,-1.595 2.785,0.071 2.785,0.072 0.486,1.46 0.487,1.46 h 1.911 c 1.419,0 1.881,-0.081 1.797,-0.317 -0.063,-0.175 -1.352,-3.718 -2.866,-7.873 l -2.752,-7.556 -1.289,0.03 c -0.708,0.017 -1.631,0.103 -2.05,0.191 m -14.268,1.706 c 2.942,0.404 3.866,2.94 2.556,7.014 -0.69,2.146 -1.803,2.842 -4.246,2.654 -2.46,-0.19 -2.31,-0.033 -2.041,-2.123 l 0.221,-1.726 1.806,0.081 1.805,0.081 0.16,-0.97 c 0.32,-1.939 0.423,-1.837 -2.268,-2.241 l -1.037,-0.156 0.197,-1.191 c 0.108,-0.655 0.203,-1.343 0.211,-1.529 0.01,-0.23 0.237,-0.294 0.714,-0.2 0.384,0.076 1.249,0.213 1.922,0.306 m 16.623,5.355 0.77,2.329 -1.756,0.084 c -1.097,0.052 -1.722,-0.012 -1.665,-0.171 0.05,-0.14 0.413,-1.315 0.807,-2.611 0.826,-2.718 0.824,-2.718 1.844,0.369 m -0.895,9.666 -1.079,0.097 v 1.241 c 0,1.49 0.165,1.619 1.79,1.395 l 1.258,-0.173 v -1.373 c 0,-1.155 -0.071,-1.366 -0.445,-1.328 -0.244,0.024 -0.93,0.088 -1.524,0.141"
       stroke="none"
       fill="#042c8c"
       fill-rule="evenodd" />
    <path
       id="path1"
       d=""
       stroke="none"
       fill="#082c8c"
       fill-rule="evenodd" />
    <path
       id="path2"
       d=""
       stroke="none"
       fill="#082c8c"
       fill-rule="evenodd" />
    <path
       id="path3"
       d=""
       stroke="none"
       fill="#082c8c"
       fill-rule="evenodd" />
    <path
       id="path4"
       d=""
       stroke="none"
       fill="#082c8c"
       fill-rule="evenodd" />
  </g>
</svg>
